<?xml version="1.0" encoding="UTF-8" standalone="no"?>
<!-- Created with Inkscape (http://www.inkscape.org/) -->

<svg
   width="117.218mm"
   height="51.994999mm"
   viewBox="0 0 117.218 51.994999"
   version="1.1"
   id="svg5"
   xml:space="preserve"
   inkscape:version="1.2.1 (9c6d41e410, 2022-07-14)"
   sodipodi:docname="server-seal.svg"
   xmlns:inkscape="http://www.inkscape.org/namespaces/inkscape"
   xmlns:sodipodi="http://sodipodi.sourceforge.net/DTD/sodipodi-0.dtd"
   xmlns="http://www.w3.org/2000/svg"
   xmlns:svg="http://www.w3.org/2000/svg"><sodipodi:namedview
     id="namedview7"
     pagecolor="#ffffff"
     bordercolor="#000000"
     borderopacity="0.25"
     inkscape:showpageshadow="2"
     inkscape:pageopacity="0.0"
     inkscape:pagecheckerboard="0"
     inkscape:deskcolor="#d1d1d1"
     inkscape:document-units="mm"
     showgrid="false"
     inkscape:zoom="0.914906"
     inkscape:cx="118.59142"
     inkscape:cy="74.324575"
     inkscape:window-width="1920"
     inkscape:window-height="1011"
     inkscape:window-x="0"
     inkscape:window-y="0"
     inkscape:window-maximized="1"
     inkscape:current-layer="layer1" /><defs
     id="defs2"><inkscape:path-effect
       effect="fillet_chamfer"
       id="path-effect1752"
       is_visible="true"
       lpeversion="1"
       nodesatellites_param="F,0,0,1,0,13.229167,0,1 @ F,0,0,1,0,13.229167,0,1 @ F,0,0,1,0,13.229167,0,1 @ F,0,0,1,0,13.229167,0,1"
       unit="px"
       method="auto"
       mode="F"
       radius="50"
       chamfer_steps="1"
       flexible="false"
       use_knot_distance="true"
       apply_no_radius="true"
       apply_with_radius="true"
       only_selected="false"
       hide_knots="false" /></defs><g
     inkscape:label="Layer 1"
     inkscape:groupmode="layer"
     id="layer1"><g
       id="g1762"
       transform="translate(-34.935555,-23.727329)"><g
         style="fill:none"
         id="g122"
         transform="matrix(0.24036378,0,0,0.24133782,-11.413671,115.03933)"><path
           style="fill:#f2f2f2;fill-opacity:1;stroke:#000000;stroke-width:1.00157;stroke-linecap:butt;stroke-linejoin:round;stroke-miterlimit:0;stroke-dasharray:none;stroke-opacity:1;paint-order:normal;image-rendering:auto"
           id="rect338"
           width="445.06366"
           height="173.00702"
           x="214.13208"
           y="-357.13898"
           inkscape:path-effect="#path-effect1752"
           d="m 227.36125,-357.13898 h 418.60532 a 13.229167,13.229167 45 0 1 13.22917,13.22917 v 146.54868 a 13.229167,13.229167 135 0 1 -13.22917,13.22917 H 227.36125 a 13.229167,13.229167 45 0 1 -13.22917,-13.22917 v -146.54868 a 13.229167,13.229167 135 0 1 13.22917,-13.22917 z"
           sodipodi:type="rect" /></g><g
         id="g284"
         transform="matrix(0.20798833,0,0,0.2146465,32.880464,58.49821)"
         style="display:inline;fill:none"><path
           d="m 305.94502,-20.798512 -38.242,22.0760005 c -2.591,1.497 -5.936,0.602 -7.432,-1.99100001 l -20.454,-35.42400049 c -1.495,-2.592 -0.6,-5.94 1.992,-7.435 l 38.241,-22.08 z m 18.256,-23.821 -3.791,2.21 a 1.313,1.313 0 0 1 -1.787,-0.473 l -3.209,-5.51 a 1.308,1.308 0 0 1 0.471,-1.787 l 3.79,-2.207 a 1.31,1.31 0 0 1 1.787,0.471 l 3.211,5.51 c 0.361,0.622 0.15,1.425 -0.472,1.786 z m -18.958,-21.237 a 1.31,1.31 0 0 1 0.47,-1.786 l 3.792,-2.209 a 1.31,1.31 0 0 1 1.786,0.472 l 3.21,5.513 a 1.31,1.31 0 0 1 -0.471,1.785 l -3.792,2.207 a 1.31,1.31 0 0 1 -1.786,-0.47 l -3.21,-5.512 z m -19.147,4.013 19.378,33.562 38.343,-22.137 -19.376,-33.562 z"
           fill="#cc1b3f"
           id="path107" /><path
           d="m 291.67102,-119.39051 a 1.3,1.3 0 0 0 -0.501,0.104 l -65.988,27.882998 c -0.62,0.264 -1.064,1.004 -1.064,1.793 v 57.985 c 0,0.281 0.05,0.551 0.142,0.78 3.329,8.323 22.077,50.442 66.91,68.383 0.325,0.13 0.67,0.131 1.004,-0.001 44.826,-17.939 63.576,-60.059 66.878,-68.321 0.108,-0.276 0.17,-0.569 0.17,-0.841 v -57.985 c 0,-0.793 -0.426,-1.526 -1.036,-1.782 l -66.022,-27.895998 a 1.28,1.28 0 0 0 -0.493,-0.102 z m 0,171.692998 c -2.042,0 -4.042,-0.386 -5.947,-1.146 -50.39,-20.165 -71.361,-67.26 -75.054,-76.496 a 16.517,16.517 0 0 1 -1.218,-6.286 v -57.985 c 0,-6.708 3.929,-12.712998 10.006,-15.296998 l 66.012,-27.892 a 15.999,15.999 0 0 1 12.394,-0.004 l 66.003,27.89 c 6.077,2.538 10.022,8.549998 10.022,15.302998 v 57.985 c 0,2.12 -0.405,4.225 -1.204,6.252 -3.708,9.27 -24.681,56.365 -75.066,76.529 a 15.983,15.983 0 0 1 -5.948,1.147"
           fill="#cc1b3f"
           id="path109" /></g></g></g></svg>
