<?xml version="1.0" encoding="UTF-8" standalone="no"?>
<!DOCTYPE svg PUBLIC "-//W3C//DTD SVG 1.1//EN" "http://www.w3.org/Graphics/SVG/1.1/DTD/svg11.dtd">
<svg width="54cm" height="22cm" viewBox="233 189 1062 436" xmlns="http://www.w3.org/2000/svg" xmlns:xlink="http://www.w3.org/1999/xlink">
  <g id="Hintergrund">
    <g>
      <rect style="fill: #ffffff; fill-opacity: 1; stroke-opacity: 1; stroke-width: 2; stroke: #000000" x="701" y="191" width="593" height="258" rx="0" ry="0"/>
      <text font-size="12.8" style="fill: #000000; fill-opacity: 1; stroke: none;text-anchor:middle;font-family:sans-serif;font-style:normal;font-weight:normal" x="997.5" y="323.9">
        <tspan x="997.5" y="323.9"></tspan>
      </text>
    </g>
    <g>
      <ellipse style="fill: #ffffff; fill-opacity: 1; stroke-opacity: 1; stroke-width: 2; stroke: #000000" cx="400" cy="289.001" rx="62.0536" ry="31.0268"/>
      <text font-size="12.8" style="fill: #000000; fill-opacity: 1; stroke: none;text-anchor:middle;font-family:sans-serif;font-style:normal;font-weight:normal" x="400" y="292.901">
        <tspan x="400" y="292.901">Unprovisioned</tspan>
      </text>
    </g>
    <g>
      <ellipse style="fill: #ffffff; fill-opacity: 1; stroke-opacity: 1; stroke-width: 2; stroke: #000000" cx="781.433" cy="289.466" rx="69.5673" ry="29.5336"/>
      <text font-size="12.8" style="fill: #000000; fill-opacity: 1; stroke: none;text-anchor:middle;font-family:sans-serif;font-style:normal;font-weight:normal" x="781.433" y="293.366">
        <tspan x="781.433" y="293.366">Operational</tspan>
      </text>
    </g>
    <text font-size="10.7244" style="fill: #000000; fill-opacity: 1; stroke: none;text-anchor:start;font-family:sans-serif;font-style:normal;font-weight:normal" x="511.278" y="336.782">
      <tspan x="511.278" y="336.782">a) Set Unlock Passphrase</tspan>
      <tspan x="511.278" y="350.188">and R-Administrator passphrase</tspan>
      <tspan x="511.278" y="363.593">b) restore backup</tspan>
    </text>
    <g>
      <ellipse style="fill: #ffffff; fill-opacity: 1; stroke-opacity: 1; stroke-width: 2; stroke: #000000" cx="1196" cy="288" rx="77.3072" ry="38.6536"/>
      <text font-size="12.8" style="fill: #000000; fill-opacity: 1; stroke: none;text-anchor:middle;font-family:sans-serif;font-style:normal;font-weight:normal" x="1196" y="291.9">
        <tspan x="1196" y="291.9">Locked</tspan>
      </text>
    </g>
    <text font-size="12.8" style="fill: #000000; fill-opacity: 1; stroke: none;text-anchor:start;font-family:sans-serif;font-style:normal;font-weight:normal" x="857" y="230">
      <tspan x="857" y="230">a) Attended Boot: Enter Unlock Passphrase</tspan>
      <tspan x="857" y="246">b) Unattended Boot: -</tspan>
    </text>
    <g>
      <path style="fill: none; stroke-opacity: 1; stroke-width: 2; stroke: #000000" d="M 717.16,278.164 A 427.68,427.68 0 0 0 466.628,274.316"/>
      <polygon style="fill: #000000; fill-opacity: 1; stroke-opacity: 1; stroke-width: 2; stroke: #000000" fill-rule="evenodd" points="459.443,276.459 467.482,268.689 466.598,274.209 470.482,278.229 "/>
    </g>
    <text font-size="12.8" style="fill: #000000; fill-opacity: 1; stroke: none;text-anchor:start;font-family:sans-serif;font-style:normal;font-weight:normal" x="570" y="246">
      <tspan x="570" y="246">Reset</tspan>
    </text>
    <text font-size="12.8" style="fill: #000000; fill-opacity: 1; stroke: none;text-anchor:start;font-family:sans-serif;font-style:normal;font-weight:normal" x="997.5" y="320">
      <tspan x="997.5" y="320"></tspan>
    </text>
    <text font-size="12.8" style="fill: #000000; fill-opacity: 1; stroke: none;text-anchor:start;font-family:sans-serif;font-style:normal;font-weight:normal" x="714" y="212">
      <tspan x="714" y="212">Provisioned</tspan>
    </text>
    <g>
      <path style="fill: none; stroke-opacity: 1; stroke-width: 2; stroke: #000000" d="M 845.704,300.768 A 496.093,496.093 0 0 0 1115.19,305.368"/>
      <polygon style="fill: #000000; fill-opacity: 1; stroke-opacity: 1; stroke-width: 2; stroke: #000000" fill-rule="evenodd" points="1122.43,303.405 1114.18,310.954 1115.21,305.461 1111.44,301.337 "/>
    </g>
    <g>
      <path style="fill: none; stroke-opacity: 1; stroke-width: 2; stroke: #000000" d="M 1124.58,273.208 A 496.22,496.22 0 0 0 855.024,275.354"/>
      <polygon style="fill: #000000; fill-opacity: 1; stroke-opacity: 1; stroke-width: 2; stroke: #000000" fill-rule="evenodd" points="847.838,277.498 855.894,269.744 854.998,275.262 858.874,279.29 "/>
    </g>
    <text font-size="10.7244" style="fill: #000000; fill-opacity: 1; stroke: none;text-anchor:start;font-family:sans-serif;font-style:normal;font-weight:normal" x="962" y="337">
      <tspan x="962" y="337">a) Lock</tspan>
      <tspan x="962" y="350.406">b) Reboot</tspan>
      <tspan x="962" y="363.811">c) Shutdown</tspan>
      <tspan x="962" y="377.217">d) commit update</tspan>
      <tspan x="962" y="390.622">e) Reset</tspan>
      <tspan x="962" y="404.028">f) Restore</tspan>
    </text>
    <g>
      <path style="fill: none; stroke-opacity: 1; stroke-width: 2; stroke: #000000" d="M 457.31,300.87 A 432.013,432.013 0 0 0 707.845,303.594"/>
      <polygon style="fill: #000000; fill-opacity: 1; stroke-opacity: 1; stroke-width: 2; stroke: #000000" fill-rule="evenodd" points="715.028,301.441 706.997,309.22 707.876,303.7 703.986,299.685 "/>
    </g>
    <g>
      <ellipse style="fill: #ffffff; fill-opacity: 1; stroke-opacity: 1; stroke-width: 2; stroke: #000000" cx="400.248" cy="502.607" rx="62.0536" ry="31.0268"/>
      <text font-size="12.8" style="fill: #000000; fill-opacity: 1; stroke: none;text-anchor:middle;font-family:sans-serif;font-style:normal;font-weight:normal" x="400.248" y="506.507">
        <tspan x="400.248" y="506.507">Failed</tspan>
      </text>
    </g>
    <g>
      <line style="fill: none; stroke-opacity: 1; stroke-width: 2; stroke: #000000" x1="400.248" y1="471.58" x2="400.016" y2="329.762"/>
      <polygon style="fill: #000000; fill-opacity: 1; stroke-opacity: 1; stroke-width: 2; stroke: #000000" fill-rule="evenodd" points="400.004,322.262 405.02,332.254 400.016,329.762 395.02,332.27 "/>
    </g>
    <text font-size="12.8" style="fill: #000000; fill-opacity: 1; stroke: none;text-anchor:start;font-family:sans-serif;font-style:normal;font-weight:normal" x="351.138" y="400.334">
      <tspan x="351.138" y="400.334">Reset</tspan>
    </text>
    <g>
      <path style="fill: none; stroke-opacity: 1; stroke-width: 2; stroke: #000000" d="M 754.812,316.752 A 801.527,801.527 0 0 1 453.507,478.065"/>
      <polygon style="fill: #000000; fill-opacity: 1; stroke-opacity: 1; stroke-width: 2; stroke: #000000" fill-rule="evenodd" points="446.284,480.083 454.629,472.642 453.523,478.122 457.244,482.295 "/>
    </g>
    <text font-size="12.8" style="fill: #000000; fill-opacity: 1; stroke: none;text-anchor:start;font-family:sans-serif;font-style:normal;font-weight:normal" x="516.586" y="413.084">
      <tspan x="516.586" y="413.084">Quorum loss</tspan>
    </text>
    <g>
      <path style="fill: none; stroke-opacity: 1; stroke-width: 2; stroke: #000000" d="M 1196,326.654 A 1042,1042 0 0 1 471.955,503.874"/>
      <polygon style="fill: #000000; fill-opacity: 1; stroke-opacity: 1; stroke-width: 2; stroke: #000000" fill-rule="evenodd" points="464.518,502.909 475.1,499.301 471.949,503.919 473.753,509.21 "/>
    </g>
    <text font-size="10.7244" style="fill: #000000; fill-opacity: 1; stroke: none;text-anchor:start;font-family:sans-serif;font-style:normal;font-weight:normal" x="705.116" y="390.606">
      <tspan x="705.116" y="390.606">a) Automatic recovery if</tspan>
      <tspan xml:space="preserve" x="705.116" y="404.012">   quorum reached again</tspan>
      <tspan xml:space="preserve" x="705.116" y="417.417">   and previous state was</tspan>
      <tspan xml:space="preserve" x="705.116" y="430.823">   "Operational"</tspan>
    </text>
    <g>
      <path style="fill: none; stroke-opacity: 1; stroke-width: 2; stroke: #000000" d="M 457.578,514.482 A 867.98,867.98 0 0 0 1218.21,330.065"/>
      <polygon style="fill: #000000; fill-opacity: 1; stroke-opacity: 1; stroke-width: 2; stroke: #000000" fill-rule="evenodd" points="1223.9,325.179 1219.64,335.518 1218.24,330.106 1213.07,327.979 "/>
    </g>
    <text font-size="10.7244" style="fill: #000000; fill-opacity: 1; stroke: none;text-anchor:start;font-family:sans-serif;font-style:normal;font-weight:normal" x="659.504" y="555.844">
      <tspan x="659.504" y="555.844">a) Automatic recovery if quorum reached again</tspan>
      <tspan xml:space="preserve" x="659.504" y="569.25">    and previous state was "Locked"</tspan>
      <tspan x="659.504" y="582.655">b) Automatic recovery if quorum reached again</tspan>
      <tspan xml:space="preserve" x="659.504" y="596.061">    and there was no previous state (boot)</tspan>
      <tspan x="659.504" y="609.466">c) Reboot if quorum reached again</tspan>
      <tspan x="659.504" y="622.872">d) Hard recover (/cluster/force-new)</tspan>
    </text>
    <g>
      <path style="fill: none; stroke-opacity: 1; stroke-width: 2; stroke: #000000" d="M 356.37,480.668 A 34.7441,34.7441 0 1 0 349.451,531.002"/>
      <polygon style="fill: #000000; fill-opacity: 1; stroke-opacity: 1; stroke-width: 2; stroke: #000000" fill-rule="evenodd" points="354.958,526.28 352.521,537.191 350.222,532.096 344.766,530.877 "/>
    </g>
    <text font-size="12.8" style="fill: #000000; fill-opacity: 1; stroke: none;text-anchor:start;font-family:sans-serif;font-style:normal;font-weight:normal" x="233.358" y="454.962">
      <tspan x="233.358" y="454.962">Reboot if quorum</tspan>
      <tspan x="233.358" y="470.962">(still) lost</tspan>
    </text>
    <g>
      <path style="fill: none; stroke-opacity: 1; stroke-width: 2; stroke: #000000" d="M 457.578,490.734 A 841.105,841.105 0 0 0 773.997,325.283"/>
      <polygon style="fill: #000000; fill-opacity: 1; stroke-opacity: 1; stroke-width: 2; stroke: #000000" fill-rule="evenodd" points="779.734,320.453 775.381,330.751 774.033,325.326 768.884,323.15 "/>
    </g>
    <text font-size="12.8" style="fill: #000000; fill-opacity: 1; stroke: none;text-anchor:start;font-family:sans-serif;font-style:normal;font-weight:normal" x="663.868" y="495.364">
      <tspan x="663.868" y="495.364">Quorum loss</tspan>
    </text>
  </g>
</svg>
