<svg width="652" height="189" fill="none" xmlns="http://www.w3.org/2000/svg"><path d="M551.591 156.726c.985 1.383 1.478 3.123 1.478 5.216v1.078h-11.696c.046-2.36.637-4.343 1.769-5.952 1.133-1.609 2.583-2.414 4.348-2.414 1.749 0 3.117.691 4.101 2.072Zm.668 20.888c1.211-.583 2.2-1.365 2.965-2.346l-1.147-1.984a7.45 7.45 0 0 1-2.591 2.082c-1.008.489-2.207.733-3.598.733-2 0-3.585-.818-4.757-2.447-1.172-1.632-1.758-3.677-1.758-6.136v-2.105h14.507v-2.779c0-3.194-.734-5.733-2.202-7.627-1.47-1.89-3.532-2.837-6.188-2.837-2.453 0-4.551 1.058-6.294 3.177-1.741 2.117-2.611 4.778-2.611 7.979v4.219c0 3.189.866 5.811 2.601 7.865 1.733 2.054 3.968 3.08 6.702 3.08 1.703 0 3.161-.291 4.371-.874Zm-20.237.382v-22.968h4.802v-2.391h-4.802v-3.656c0-1.766.315-3.124.948-4.077.632-.954 1.567-1.431 2.8-1.431.391 0 .747.027 1.067.082.32.054.637.13.949.222l.353-2.366a11.938 11.938 0 0 0-1.349-.339 6.897 6.897 0 0 0-1.323-.13c-1.97 0-3.505.7-4.605 2.098-1.103 1.397-1.653 3.379-1.653 5.941v3.656h-3.423v2.391h3.423v22.968h2.813Zm-10.221-36.563h-2.837v3.986h2.837v-3.986Zm0 11.204h-2.837v25.359h2.837v-25.359Zm-8.814-11.204h-2.836v36.563h2.836v-36.563Zm-18.002 0h-2.836v36.563h2.836v-36.563Zm-21.142 33.235c-.718-.859-1.078-1.968-1.078-3.326 0-1.595.574-2.934 1.722-4.021 1.149-1.085 2.684-1.629 4.607-1.629h4.5v5.485c-.502 1.391-1.356 2.534-2.567 3.432-1.212.899-2.598 1.35-4.16 1.35-1.297 0-2.305-.431-3.024-1.291Zm13.102 3.328a16.34 16.34 0 0 1-.421-2.483 27.842 27.842 0 0 1-.118-2.626v-12.445c0-2.655-.717-4.699-2.155-6.129-1.44-1.43-3.329-2.145-5.672-2.145-2.377 0-4.325.748-5.849 2.24-1.524 1.491-2.247 3.191-2.168 5.097l.047.14 2.625.023c0-1.406.488-2.592 1.465-3.563.976-.968 2.222-1.451 3.738-1.451 1.625 0 2.89.506 3.797 1.523.905 1.016 1.36 2.422 1.36 4.219v3.117h-4.431c-2.828 0-5.07.698-6.726 2.096-1.656 1.399-2.485 3.278-2.485 5.638 0 2.22.573 3.979 1.711 5.285 1.143 1.304 2.758 1.956 4.852 1.956 1.5 0 2.863-.409 4.09-1.229a9.9 9.9 0 0 0 2.989-3.128c0 .577.035 1.146.105 1.711.07.562.175 1.281.316 2.154h2.93Zm-27.705-31.828v6.469h-3.516v2.391h3.516v16.437c0 2.434.426 4.215 1.278 5.339.852 1.124 2.028 1.684 3.528 1.684.609 0 1.215-.057 1.817-.175.6-.117 1.088-.27 1.464-.457l-.376-2.156c-.453.095-.858.164-1.218.211-.359.048-.727.07-1.102.07-.765 0-1.382-.343-1.852-1.031-.468-.685-.702-1.849-.702-3.488v-16.434h4.406v-2.391h-4.406v-6.469h-2.837Zm-7.008-4.735h-2.836v3.986h2.836v-3.986Zm0 11.204h-2.836v25.359h2.836v-25.359Zm-22.946 11.438c0-2.78.5-5.039 1.5-6.774 1-1.733 2.492-2.601 4.476-2.601 1.39 0 2.545.417 3.457 1.254.915.837 1.639 1.925 2.168 3.269v12.564c-.547 1.312-1.289 2.339-2.227 3.081-.937.741-2.085 1.113-3.445 1.113-1.984 0-3.467-.767-4.453-2.296-.984-1.531-1.476-3.58-1.476-6.142v-3.468Zm-2.836 3.468c0 3.314.723 5.965 2.168 7.957 1.445 1.992 3.441 2.988 5.988 2.988 1.374 0 2.585-.303 3.633-.913 1.047-.609 1.929-1.484 2.648-2.625v3.07c0 2.5-.484 4.399-1.453 5.694-.97 1.299-2.46 1.946-4.476 1.946-1 0-1.969-.136-2.907-.41a9.948 9.948 0 0 1-2.555-1.136l-.773 2.461c.891.5 1.911.902 3.059 1.206 1.148.306 2.222.459 3.222.459 2.782 0 4.93-.891 6.446-2.672 1.515-1.781 2.273-4.299 2.273-7.548v-25.383h-2.391l-.281 3.54c-.702-1.281-1.589-2.269-2.66-2.966-1.071-.694-2.316-1.043-3.739-1.043-2.562 0-4.568 1.087-6.022 3.258-1.454 2.173-2.18 5.055-2.18 8.649v3.468Zm-4.783-26.11h-2.836v3.986h2.836v-3.986Zm0 11.204h-2.836v25.359h2.836v-25.359Zm-22.921 12.913c0-3.233.482-5.85 1.452-7.85.969-2 2.445-3 4.429-3 1.391 0 2.547.426 3.469 1.277.922.851 1.64 1.956 2.156 3.318v12.42c-.546 1.345-1.285 2.39-2.214 3.141-.93.749-2.083 1.125-3.456 1.125-1.969 0-3.435-.894-4.396-2.684-.96-1.789-1.44-4.206-1.44-7.254v-.493Zm-2.86.493c0 3.781.714 6.802 2.144 9.058 1.429 2.26 3.41 3.387 5.942 3.387 1.42 0 2.664-.324 3.726-.971 1.062-.649 1.945-1.584 2.648-2.802l.236 3.281h2.482v-36.563h-2.812v14.509c-.702-1.202-1.574-2.133-2.613-2.788-1.039-.658-2.253-.986-3.644-.986-2.563 0-4.556 1.215-5.977 3.645-1.421 2.431-2.132 5.675-2.132 9.737v.493Zm-11.207-13.617a4.883 4.883 0 0 0-.702-.176 4.981 4.981 0 0 0-.891-.082c-1.312 0-2.458.411-3.434 1.231-.977.82-1.761 1.965-2.356 3.433l-.326-4.195h-2.485v25.359h2.811v-18c.407-1.546 1.04-2.76 1.9-3.642.859-.883 1.944-1.326 3.258-1.326l1.852.14.373-2.742Zm-18.117 25.57h2.53v-25.359h-2.811v18.468c-.438 1.518-1.16 2.708-2.168 3.576-1.008.866-2.318 1.3-3.925 1.3-1.533 0-2.701-.66-3.505-1.981-.805-1.319-1.208-3.519-1.208-6.596v-14.767h-2.812v14.719c0 3.812.63 6.621 1.887 8.425 1.257 1.806 3.012 2.707 5.261 2.707 1.486 0 2.781-.387 3.891-1.16 1.109-.773 2-1.869 2.672-3.292l.188 3.96Zm-33.915-14.511c0-2.49.561-4.584 1.687-6.284 1.125-1.7 2.727-2.547 4.805-2.547 2.063 0 3.664.847 4.804 2.547 1.143 1.7 1.711 3.794 1.711 6.284v3.734c0 2.523-.568 4.633-1.711 6.33-1.14 1.7-2.735 2.55-4.781 2.55-2.094 0-3.703-.845-4.828-2.536-1.126-1.692-1.687-3.806-1.687-6.344v-3.734Zm-2.836 3.707c0 3.328.843 6.044 2.531 8.144 1.688 2.101 3.961 3.152 6.82 3.152 2.844 0 5.109-1.051 6.797-3.152 1.688-2.1 2.531-4.816 2.531-8.144v-3.727c0-3.297-.847-6.003-2.543-8.12-1.694-2.119-3.965-3.177-6.808-3.177-2.844 0-5.109 1.064-6.797 3.188-1.688 2.125-2.531 4.829-2.531 8.109v3.727Zm-16.806-14.555h-3.117l8.015 25.031-1.054 3.352c-.359 1.312-.837 2.413-1.43 3.304-.595.89-1.368 1.336-2.32 1.336-.172 0-.437-.018-.797-.059a9.114 9.114 0 0 1-.774-.105l-.305 2.415c.204.062.516.132.939.212.421.077.773.117 1.055.117 1.67 0 2.956-.609 3.854-1.829.899-1.219 1.622-2.671 2.168-4.361l9.047-29.413h-3.14l-6 20.931h-.141l-.656-2.555-5.344-18.376Zm-18.214 4.089c.985 1.383 1.477 3.123 1.477 5.216v1.078h-11.695c.046-2.36.637-4.343 1.769-5.952 1.133-1.609 2.582-2.414 4.348-2.414 1.749 0 3.117.691 4.101 2.072Zm.668 20.888c1.211-.583 2.2-1.365 2.965-2.346l-1.147-1.984a7.459 7.459 0 0 1-2.591 2.082c-1.008.489-2.207.733-3.598.733-2 0-3.585-.818-4.757-2.447-1.172-1.632-1.758-3.677-1.758-6.136v-2.105h14.508v-2.779c0-3.194-.735-5.733-2.203-7.627-1.469-1.89-3.532-2.837-6.188-2.837-2.454 0-4.551 1.058-6.294 3.177-1.741 2.117-2.613 4.778-2.613 7.979v4.219c0 3.189.868 5.811 2.603 7.865 1.733 2.054 3.968 3.08 6.702 3.08 1.703 0 3.16-.291 4.371-.874Zm-15.036-25.188a4.937 4.937 0 0 0-.703-.176 4.97 4.97 0 0 0-.89-.082c-1.312 0-2.458.411-3.434 1.231-.977.82-1.762 1.965-2.355 3.433l-.329-4.195h-2.484v25.359h2.813v-18c.406-1.546 1.038-2.76 1.898-3.642.859-.883 1.945-1.326 3.257-1.326l1.853.14.374-2.742Zm-18.117 25.57h2.531v-25.359h-2.812v18.468c-.438 1.518-1.16 2.708-2.168 3.576-1.008.866-2.318 1.3-3.927 1.3-1.531 0-2.699-.66-3.504-1.981-.804-1.319-1.207-3.519-1.207-6.596v-14.767h-2.812v14.719c0 3.812.628 6.621 1.887 8.425 1.257 1.806 3.012 2.707 5.261 2.707 1.484 0 2.781-.387 3.891-1.16 1.109-.773 2-1.869 2.672-3.292l.188 3.96Zm-30.821-4.363c-1-1.645-1.5-3.744-1.5-6.297v-3.947c0-2.518.5-4.605 1.5-6.257 1-1.652 2.593-2.478 4.781-2.478 1.577 0 2.895.596 3.949 1.791 1.055 1.197 1.582 2.802 1.582 4.817h2.508l.046-.117c.047-2.686-.698-4.854-2.238-6.503-1.539-1.65-3.488-2.474-5.847-2.474-2.923 0-5.168 1.051-6.739 3.153-1.571 2.102-2.356 4.784-2.356 8.051v3.937c0 3.282.785 5.964 2.356 8.051 1.571 2.085 3.816 3.128 6.739 3.128 2.187 0 4.093-.788 5.719-2.365 1.624-1.58 2.413-3.54 2.366-5.883l-.07-.141h-2.484c0 1.874-.555 3.341-1.664 4.404-1.11 1.065-2.399 1.596-3.867 1.596-2.188 0-3.781-.823-4.781-2.466Zm-11.486-16.907c.984 1.383 1.476 3.123 1.476 5.216v1.078h-11.694c.046-2.36.636-4.343 1.769-5.952 1.132-1.609 2.581-2.414 4.348-2.414 1.749 0 3.116.691 4.101 2.072Zm.668 20.888c1.211-.583 2.199-1.365 2.964-2.346l-1.148-1.984a7.434 7.434 0 0 1-2.589 2.082c-1.008.489-2.208.733-3.599.733-2 0-3.585-.818-4.757-2.447-1.172-1.632-1.757-3.677-1.757-6.136v-2.105h14.508v-2.779c0-3.194-.735-5.733-2.204-7.627-1.468-1.89-3.531-2.837-6.187-2.837-2.453 0-4.552 1.058-6.293 3.177-1.743 2.117-2.614 4.778-2.614 7.979v4.219c0 3.189.867 5.811 2.602 7.865 1.734 2.054 3.969 3.08 6.702 3.08 1.704 0 3.16-.291 4.372-.874Zm-21.036-2.718c-.906.803-2.149 1.203-3.726 1.203-1.454 0-2.719-.412-3.798-1.237-1.078-.824-1.664-2.147-1.757-3.969h-2.625l-.047.142c-.079 2.025.621 3.774 2.097 5.246 1.476 1.473 3.52 2.207 6.13 2.207 2.374 0 4.285-.616 5.73-1.851 1.444-1.233 2.168-2.86 2.168-4.875 0-1.829-.625-3.339-1.876-4.536-1.249-1.194-3.14-2.3-5.672-3.315-2.156-1.032-3.561-1.887-4.218-2.566-.656-.681-.984-1.583-.984-2.708 0-1.061.413-1.992 1.242-2.788.828-.799 2.031-1.195 3.61-1.195 1.546 0 2.773.506 3.678 1.523.907 1.016 1.36 2.21 1.36 3.585h2.648l.048-.139c.062-2.127-.61-3.9-2.016-5.322-1.406-1.422-3.313-2.133-5.718-2.133-2.267 0-4.11.641-5.532 1.923-1.422 1.281-2.132 2.828-2.132 4.641 0 1.781.597 3.222 1.792 4.323 1.196 1.101 3.082 2.185 5.661 3.246 2.015.925 3.401 1.81 4.16 2.649.757.842 1.136 1.842 1.136 3.004 0 1.161-.453 2.143-1.359 2.942" fill="currentColor"/><path d="M199.631 174.896c-.906.803-2.149 1.203-3.726 1.203-1.454 0-2.719-.412-3.798-1.237-1.078-.824-1.664-2.147-1.757-3.969h-2.625l-.047.142c-.079 2.025.621 3.774 2.097 5.246 1.476 1.473 3.52 2.207 6.13 2.207 2.374 0 4.285-.616 5.73-1.851 1.444-1.233 2.168-2.86 2.168-4.875 0-1.829-.625-3.339-1.876-4.536-1.249-1.194-3.14-2.3-5.672-3.315-2.156-1.032-3.561-1.887-4.218-2.566-.656-.681-.984-1.583-.984-2.708 0-1.061.413-1.992 1.242-2.788.828-.799 2.031-1.195 3.61-1.195 1.546 0 2.773.506 3.678 1.523.907 1.016 1.36 2.21 1.36 3.585h2.648l.048-.139c.062-2.127-.61-3.9-2.016-5.322-1.406-1.422-3.313-2.133-5.718-2.133-2.267 0-4.11.641-5.532 1.923-1.422 1.281-2.132 2.828-2.132 4.641 0 1.781.597 3.222 1.792 4.323 1.196 1.101 3.082 2.185 5.661 3.246 2.015.925 3.401 1.81 4.16 2.649.757.842 1.136 1.842 1.136 3.004 0 1.161-.453 2.143-1.359 2.942m351.96-18.17c.985 1.383 1.478 3.123 1.478 5.216v1.078h-11.696c.046-2.36.637-4.343 1.769-5.952 1.133-1.609 2.583-2.414 4.348-2.414 1.749 0 3.117.691 4.101 2.072Zm.668 20.888c1.211-.583 2.2-1.365 2.965-2.346l-1.147-1.984a7.45 7.45 0 0 1-2.591 2.082c-1.008.489-2.207.733-3.598.733-2 0-3.585-.818-4.757-2.447-1.172-1.632-1.758-3.677-1.758-6.136v-2.105h14.507v-2.779c0-3.194-.734-5.733-2.202-7.627-1.47-1.89-3.532-2.837-6.188-2.837-2.453 0-4.551 1.058-6.294 3.177-1.741 2.117-2.611 4.778-2.611 7.979v4.219c0 3.189.866 5.811 2.601 7.865 1.733 2.054 3.968 3.08 6.702 3.08 1.703 0 3.161-.291 4.371-.874Zm-20.237.382v-22.968h4.802v-2.391h-4.802v-3.656c0-1.766.315-3.124.948-4.077.632-.954 1.567-1.431 2.8-1.431.391 0 .747.027 1.067.082.32.054.637.13.949.222l.353-2.366a11.938 11.938 0 0 0-1.349-.339 6.897 6.897 0 0 0-1.323-.13c-1.97 0-3.505.7-4.605 2.098-1.103 1.397-1.653 3.379-1.653 5.941v3.656h-3.423v2.391h3.423v22.968h2.813Zm-10.221-36.563h-2.837v3.986h2.837v-3.986Zm0 11.204h-2.837v25.359h2.837v-25.359Zm-8.814-11.204h-2.836v36.563h2.836v-36.563Zm-18.002 0h-2.836v36.563h2.836v-36.563Zm-21.142 33.235c-.718-.859-1.078-1.968-1.078-3.326 0-1.595.574-2.934 1.722-4.021 1.149-1.085 2.684-1.629 4.607-1.629h4.5v5.485c-.502 1.391-1.356 2.534-2.567 3.432-1.212.899-2.598 1.35-4.16 1.35-1.297 0-2.305-.431-3.024-1.291Zm13.102 3.328a16.34 16.34 0 0 1-.421-2.483 27.842 27.842 0 0 1-.118-2.626v-12.445c0-2.655-.717-4.699-2.155-6.129-1.44-1.43-3.329-2.145-5.672-2.145-2.377 0-4.325.748-5.849 2.24-1.524 1.491-2.247 3.191-2.168 5.097l.047.14 2.625.023c0-1.406.488-2.592 1.465-3.563.976-.968 2.222-1.451 3.738-1.451 1.625 0 2.89.506 3.797 1.523.905 1.016 1.36 2.422 1.36 4.219v3.117h-4.431c-2.828 0-5.07.698-6.726 2.096-1.656 1.399-2.485 3.278-2.485 5.638 0 2.22.573 3.979 1.711 5.285 1.143 1.304 2.758 1.956 4.852 1.956 1.5 0 2.863-.409 4.09-1.229a9.9 9.9 0 0 0 2.989-3.128c0 .577.035 1.146.105 1.711.07.562.175 1.281.316 2.154h2.93Zm-27.705-31.828v6.469h-3.516v2.391h3.516v16.437c0 2.434.426 4.215 1.278 5.339.852 1.124 2.028 1.684 3.528 1.684.609 0 1.215-.057 1.817-.175.6-.117 1.088-.27 1.464-.457l-.376-2.156c-.453.095-.858.164-1.218.211-.359.048-.727.07-1.102.07-.765 0-1.382-.343-1.852-1.031-.468-.685-.702-1.849-.702-3.488v-16.434h4.406v-2.391h-4.406v-6.469h-2.837Zm-7.008-4.735h-2.836v3.986h2.836v-3.986Zm0 11.204h-2.836v25.359h2.836v-25.359Zm-22.946 11.438c0-2.78.5-5.039 1.5-6.774 1-1.733 2.492-2.601 4.476-2.601 1.39 0 2.545.417 3.457 1.254.915.837 1.639 1.925 2.168 3.269v12.564c-.547 1.312-1.289 2.339-2.227 3.081-.937.741-2.085 1.113-3.445 1.113-1.984 0-3.467-.767-4.453-2.296-.984-1.531-1.476-3.58-1.476-6.142v-3.468Zm-2.836 3.468c0 3.314.723 5.965 2.168 7.957 1.445 1.992 3.441 2.988 5.988 2.988 1.374 0 2.585-.303 3.633-.913 1.047-.609 1.929-1.484 2.648-2.625v3.07c0 2.5-.484 4.399-1.453 5.694-.97 1.299-2.46 1.946-4.476 1.946-1 0-1.969-.136-2.907-.41a9.948 9.948 0 0 1-2.555-1.136l-.773 2.461c.891.5 1.911.902 3.059 1.206 1.148.306 2.222.459 3.222.459 2.782 0 4.93-.891 6.446-2.672 1.515-1.781 2.273-4.299 2.273-7.548v-25.383h-2.391l-.281 3.54c-.702-1.281-1.589-2.269-2.66-2.966-1.071-.694-2.316-1.043-3.739-1.043-2.562 0-4.568 1.087-6.022 3.258-1.454 2.173-2.18 5.055-2.18 8.649v3.468Zm-4.783-26.11h-2.836v3.986h2.836v-3.986Zm0 11.204h-2.836v25.359h2.836v-25.359Zm-22.921 12.913c0-3.233.482-5.85 1.452-7.85.969-2 2.445-3 4.429-3 1.391 0 2.547.426 3.469 1.277.922.851 1.64 1.956 2.156 3.318v12.42c-.546 1.345-1.285 2.39-2.214 3.141-.93.749-2.083 1.125-3.456 1.125-1.969 0-3.435-.894-4.396-2.684-.96-1.789-1.44-4.206-1.44-7.254v-.493Zm-2.86.493c0 3.781.714 6.802 2.144 9.058 1.429 2.26 3.41 3.387 5.942 3.387 1.42 0 2.664-.324 3.726-.971 1.062-.649 1.945-1.584 2.648-2.802l.236 3.281h2.482v-36.563h-2.812v14.509c-.702-1.202-1.574-2.133-2.613-2.788-1.039-.658-2.253-.986-3.644-.986-2.563 0-4.556 1.215-5.977 3.645-1.421 2.431-2.132 5.675-2.132 9.737v.493Zm-11.207-13.617a4.883 4.883 0 0 0-.702-.176 4.981 4.981 0 0 0-.891-.082c-1.312 0-2.458.411-3.434 1.231-.977.82-1.761 1.965-2.356 3.433l-.326-4.195h-2.485v25.359h2.811v-18c.407-1.546 1.04-2.76 1.9-3.642.859-.883 1.944-1.326 3.258-1.326l1.852.14.373-2.742Zm-18.117 25.57h2.53v-25.359h-2.811v18.468c-.438 1.518-1.16 2.708-2.168 3.576-1.008.866-2.318 1.3-3.925 1.3-1.533 0-2.701-.66-3.505-1.981-.805-1.319-1.208-3.519-1.208-6.596v-14.767h-2.812v14.719c0 3.812.63 6.621 1.887 8.425 1.257 1.806 3.012 2.707 5.261 2.707 1.486 0 2.781-.387 3.891-1.16 1.109-.773 2-1.869 2.672-3.292l.188 3.96Zm-33.915-14.511c0-2.49.561-4.584 1.687-6.284 1.125-1.7 2.727-2.547 4.805-2.547 2.063 0 3.664.847 4.804 2.547 1.143 1.7 1.711 3.794 1.711 6.284v3.734c0 2.523-.568 4.633-1.711 6.33-1.14 1.7-2.735 2.55-4.781 2.55-2.094 0-3.703-.845-4.828-2.536-1.126-1.692-1.687-3.806-1.687-6.344v-3.734Zm-2.836 3.707c0 3.328.843 6.044 2.531 8.144 1.688 2.101 3.961 3.152 6.82 3.152 2.844 0 5.109-1.051 6.797-3.152 1.688-2.1 2.531-4.816 2.531-8.144v-3.727c0-3.297-.847-6.003-2.543-8.12-1.694-2.119-3.965-3.177-6.808-3.177-2.844 0-5.109 1.064-6.797 3.188-1.688 2.125-2.531 4.829-2.531 8.109v3.727Zm-16.806-14.555h-3.117l8.015 25.031-1.054 3.352c-.359 1.312-.837 2.413-1.43 3.304-.595.89-1.368 1.336-2.32 1.336-.172 0-.437-.018-.797-.059a9.114 9.114 0 0 1-.774-.105l-.305 2.415c.204.062.516.132.939.212.421.077.773.117 1.055.117 1.67 0 2.956-.609 3.854-1.829.899-1.219 1.622-2.671 2.168-4.361l9.047-29.413h-3.14l-6 20.931h-.141l-.656-2.555-5.344-18.376Zm-18.214 4.089c.985 1.383 1.477 3.123 1.477 5.216v1.078h-11.695c.046-2.36.637-4.343 1.769-5.952 1.133-1.609 2.582-2.414 4.348-2.414 1.749 0 3.117.691 4.101 2.072Zm.668 20.888c1.211-.583 2.2-1.365 2.965-2.346l-1.147-1.984a7.459 7.459 0 0 1-2.591 2.082c-1.008.489-2.207.733-3.598.733-2 0-3.585-.818-4.757-2.447-1.172-1.632-1.758-3.677-1.758-6.136v-2.105h14.508v-2.779c0-3.194-.735-5.733-2.203-7.627-1.469-1.89-3.532-2.837-6.188-2.837-2.454 0-4.551 1.058-6.294 3.177-1.741 2.117-2.613 4.778-2.613 7.979v4.219c0 3.189.868 5.811 2.603 7.865 1.733 2.054 3.968 3.08 6.702 3.08 1.703 0 3.16-.291 4.371-.874Zm-15.036-25.188a4.937 4.937 0 0 0-.703-.176 4.97 4.97 0 0 0-.89-.082c-1.312 0-2.458.411-3.434 1.231-.977.82-1.762 1.965-2.355 3.433l-.329-4.195h-2.484v25.359h2.813v-18c.406-1.546 1.038-2.76 1.898-3.642.859-.883 1.945-1.326 3.257-1.326l1.853.14.374-2.742Zm-18.117 25.57h2.531v-25.359h-2.812v18.468c-.438 1.518-1.16 2.708-2.168 3.576-1.008.866-2.318 1.3-3.927 1.3-1.531 0-2.699-.66-3.504-1.981-.804-1.319-1.207-3.519-1.207-6.596v-14.767h-2.812v14.719c0 3.812.628 6.621 1.887 8.425 1.257 1.806 3.012 2.707 5.261 2.707 1.484 0 2.781-.387 3.891-1.16 1.109-.773 2-1.869 2.672-3.292l.188 3.96Zm-30.821-4.363c-1-1.645-1.5-3.744-1.5-6.297v-3.947c0-2.518.5-4.605 1.5-6.257 1-1.652 2.593-2.478 4.781-2.478 1.577 0 2.895.596 3.949 1.791 1.055 1.197 1.582 2.802 1.582 4.817h2.508l.046-.117c.047-2.686-.698-4.854-2.238-6.503-1.539-1.65-3.488-2.474-5.847-2.474-2.923 0-5.168 1.051-6.739 3.153-1.571 2.102-2.356 4.784-2.356 8.051v3.937c0 3.282.785 5.964 2.356 8.051 1.571 2.085 3.816 3.128 6.739 3.128 2.187 0 4.093-.788 5.719-2.365 1.624-1.58 2.413-3.54 2.366-5.883l-.07-.141h-2.484c0 1.874-.555 3.341-1.664 4.404-1.11 1.065-2.399 1.596-3.867 1.596-2.188 0-3.781-.823-4.781-2.466Zm-11.486-16.907c.984 1.383 1.476 3.123 1.476 5.216v1.078h-11.694c.046-2.36.636-4.343 1.769-5.952 1.132-1.609 2.581-2.414 4.348-2.414 1.749 0 3.116.691 4.101 2.072Zm.668 20.888c1.211-.583 2.199-1.365 2.964-2.346l-1.148-1.984a7.434 7.434 0 0 1-2.589 2.082c-1.008.489-2.208.733-3.599.733-2 0-3.585-.818-4.757-2.447-1.172-1.632-1.757-3.677-1.757-6.136v-2.105h14.508v-2.779c0-3.194-.735-5.733-2.204-7.627-1.468-1.89-3.531-2.837-6.187-2.837-2.453 0-4.552 1.058-6.293 3.177-1.743 2.117-2.614 4.778-2.614 7.979v4.219c0 3.189.867 5.811 2.602 7.865 1.734 2.054 3.969 3.08 6.702 3.08 1.704 0 3.16-.291 4.372-.874Z" stroke="currentColor" stroke-width="1.5"/><path d="M367.497 58.857h-23.259v69.497h23.676V78.725l8.776.047h7.938V58.876h-2.09c-4.086 0-15.041-.02-15.041-.02M424.178 108.856c0 2.043-1.163 3.064-3.481 3.064h-3.762c-2.321 0-3.481-1.021-3.481-3.064V78.355c0-2.042 1.16-3.065 3.481-3.065h3.762c2.318 0 3.481 1.023 3.481 3.065v30.501Zm3.481-50h-17.686c-7.056 0-12.118 1.487-15.182 4.456-3.064 2.973-4.596 7.243-4.596 12.813v34.959c0 5.571 1.532 9.842 4.596 12.812 3.064 2.974 8.126 4.458 15.182 4.458h17.686c7.056 0 12.118-1.484 15.182-4.458 3.064-2.97 4.596-7.241 4.596-12.812V76.125c0-5.57-1.532-9.84-4.596-12.813-3.064-2.97-8.126-4.455-15.182-4.455ZM263.023 51.892h24.512V35.18h-24.512v16.712M263.441 128.354h23.676V58.857h-23.676v69.497ZM230.036 84.946 209.825 35.18h-21.2v93.147h22.613V79.432l20.211 48.895h21.2V35.18h-22.613v49.766ZM627.311 58.857l-7.52 42.339-9.442-42.34h-23.845l22.103 71.898-9.023 34.236h21.479l30.064-106.133h-23.816ZM560.991 86.99h-13.092v-8.775c0-2.042 1.16-3.064 3.483-3.064h6.128c2.32 0 3.481 1.022 3.481 3.064v8.774Zm1.95-28.133H545.95c-13.648 0-20.473 5.756-20.473 17.268v34.959c0 11.514 6.825 17.27 20.473 17.27h16.991c13.649 0 20.474-5.756 20.474-17.27v-6.268h-22.424v3.9c0 2.228.032 3.344.032 3.344h-9.641c-2.323 0-3.483-1.022-3.483-3.065v-9.191h35.516V76.125c0-11.512-6.825-17.268-20.474-17.268M324.981 35.433h-23.676V59.04h-7.66v17.41h7.66v52.062s6.824.026 20.473.026h11.837v-17.409l-8.634-.003V76.448h8.774v-17.41h-8.774V35.434ZM494.651 58.857 481.559 90.47V35.18h-23.676v93.174h23.676v-32.45l12.952 32.45h24.652L504.26 93.117l14.903-34.26h-24.512Z" fill="currentColor"/><path d="m96.493 113.253-38.242 22.076c-2.591 1.497-5.936.602-7.432-1.991L30.365 97.914c-1.495-2.592-.6-5.94 1.992-7.435l38.241-22.08 25.895 44.854ZM114.749 89.432l-3.791 2.21a1.313 1.313 0 0 1-1.787-.473l-3.209-5.51a1.308 1.308 0 0 1 .471-1.787l3.79-2.207a1.31 1.31 0 0 1 1.787.471l3.211 5.51c.361.622.15 1.425-.472 1.786ZM95.791 68.195a1.31 1.31 0 0 1 .47-1.786l3.792-2.209a1.31 1.31 0 0 1 1.786.472l3.21 5.513a1.31 1.31 0 0 1-.471 1.785l-3.792 2.207a1.31 1.31 0 0 1-1.786-.47l-3.21-5.512Zm-19.147 4.013 19.378 33.562 38.343-22.137-19.376-33.562-38.345 22.137Z" fill="#CC1B3F"/><path d="M82.219 14.661a1.3 1.3 0 0 0-.501.104L15.73 42.648c-.62.264-1.064 1.004-1.064 1.793v57.985c0 .281.05.551.142.78 3.329 8.323 22.077 50.442 66.91 68.383.325.13.67.131 1.004-.001 44.826-17.939 63.576-60.059 66.878-68.321.108-.276.17-.569.17-.841V44.441c0-.793-.426-1.526-1.036-1.782L82.712 14.763a1.28 1.28 0 0 0-.493-.102Zm0 171.693c-2.042 0-4.042-.386-5.947-1.146-50.39-20.165-71.361-67.26-75.054-76.496A16.517 16.517 0 0 1 0 102.426V44.441c0-6.708 3.929-12.713 10.006-15.297L76.018 1.252a15.999 15.999 0 0 1 12.394-.004l66.003 27.89c6.077 2.538 10.022 8.55 10.022 15.303v57.985c0 2.12-.405 4.225-1.204 6.252-3.708 9.27-24.681 56.365-75.066 76.529a15.983 15.983 0 0 1-5.948 1.147" fill="#CC1B3F"/></svg>